<?xml version="1.0" standalone="no"?>
<!DOCTYPE svg PUBLIC "-//W3C//DTD SVG 20010904//EN"
 "http://www.w3.org/TR/2001/REC-SVG-20010904/DTD/svg10.dtd">
<svg version="1.0" xmlns="http://www.w3.org/2000/svg"
 width="700.000000pt" height="700.000000pt" viewBox="0 0 700.000000 700.000000"
 preserveAspectRatio="xMidYMid meet">
<metadata>
Created by potrace 1.14, written by Peter Selinger 2001-2017
</metadata>
<g transform="translate(0.000000,700.000000) scale(0.100000,-0.100000)"
fill="#000000" stroke="none">
<path d="M1988 6626 c-60 -16 -113 -57 -140 -109 -20 -38 -22 -59 -24 -237 -2
-107 -3 -203 -3 -213 -1 -16 -17 -17 -213 -17 -117 1 -243 -4 -279 -9 -171
-28 -336 -116 -457 -246 -99 -106 -166 -237 -198 -384 -15 -69 -17 -256 -18
-2031 0 -1075 2 -1977 6 -2005 25 -194 90 -333 217 -469 115 -121 268 -204
441 -237 50 -9 538 -12 2158 -13 2246 -1 2199 -2 2341 51 266 99 463 335 511
613 11 60 13 468 13 2010 0 1064 -3 1967 -6 2005 -26 270 -210 529 -457 642
-120 55 -176 66 -363 70 -160 3 -181 1 -215 -16 -137 -71 -165 -246 -56 -358
6 -7 31 -22 54 -34 37 -19 60 -23 169 -24 69 -2 146 -8 171 -15 110 -29 203
-117 248 -234 13 -35 16 -111 17 -552 l1 -511 -2405 1 -2406 1 1 510 c1 498 1
511 22 565 43 110 161 208 273 228 24 4 131 7 238 7 l194 0 2 -210 c1 -169 5
-217 18 -246 18 -40 75 -95 116 -111 105 -42 225 3 275 104 l26 52 0 620 c0
403 -4 634 -11 659 -20 72 -98 137 -179 149 -19 3 -56 0 -82 -6z m3913 -2765
c3 0 5 -560 5 -1243 l-1 -1243 -32 -65 c-54 -111 -151 -188 -263 -208 -25 -4
-985 -8 -2135 -7 l-2090 1 -60 24 c-82 32 -173 122 -205 205 l-24 60 -1 1235
c-1 679 -1 1237 1 1240 2 4 4786 5 4805 1z"/>
<path d="M4333 6629 c-77 -14 -153 -84 -169 -153 -4 -17 -8 -119 -8 -226 l-1
-195 -540 -2 c-297 -1 -562 -4 -588 -7 -47 -5 -96 -32 -129 -71 -92 -108 -58
-274 69 -336 l48 -24 570 0 570 -1 1 -204 c1 -131 6 -216 13 -235 36 -89 124
-146 217 -141 100 6 185 80 202 176 4 25 7 317 6 650 0 563 -2 608 -19 643
-46 97 -140 146 -242 126z"/>
</g>
</svg>
